<svg xmlns="http://www.w3.org/2000/svg" xmlns:xlink="http://www.w3.org/1999/xlink" width="40" height="40" viewBox="0 0 40 40" fill="none"><g opacity="1"  transform="translate(0 0)  rotate(0)"><mask id="bg-mask-0" fill="white"><use transform="translate(0 0)  rotate(0)" xlink:href="#path_0"></use></mask><g mask="url(#bg-mask-0)" ><g opacity="1"  transform="translate(0.08319091796875 1.41375732421875)  rotate(0)"><path id="svg_1" fill-rule="evenodd" style="fill:#C75450" opacity="1" d="M14.19,0.25l14.12,-0.25l-3.83,2.96h9.01l-18.06,8.54l-15.43,-3.95l2.59,-1.33l5.27,-2.67zM26.45,7.91l7.9,9.76l-3.86,13.43c0,1.86 -10.62,5.89 -12.82,5.89l-9.61,-0.17c-2.2,0 33.41,-13.24 9.15,-24.62z"></path><path id="svg_2" fill-rule="evenodd" style="fill:#C75450" opacity="1" d="M14.1028 13.1934C10.8628 13.1934 8.23279 15.9434 8.23279 19.3234C8.23279 22.7134 10.8628 25.4634 14.1028 25.4634C17.3528 25.4634 19.9828 22.7134 19.9828 19.3234C19.9828 15.9434 17.3528 13.1934 14.1028 13.1934Z"></path><path id="svg_3" fill-rule="evenodd" style="fill:#C75450" opacity="1" d="M25.0216 16.393C24.0116 16.393 23.2016 17.463 23.2016 18.783C23.2016 20.103 24.0116 21.173 25.0216 21.173C26.0216 21.173 26.8416 20.103 26.8416 18.783C26.8416 17.463 26.0216 16.393 25.0216 16.393Z"></path><path id="svg_3" fill-rule="evenodd" style="fill:#C75450" opacity="1" d="M25.0216 16.393C24.0116 16.393 23.2016 17.463 23.2016 18.783C23.2016 20.103 24.0116 21.173 25.0216 21.173C26.0216 21.173 26.8416 20.103 26.8416 18.783C26.8416 17.463 26.0216 16.393 25.0216 16.393Z"></path></g><path id="svg_3" fill-rule="evenodd" style="fill:#FFFFFF" opacity="1" d="M14.5 17C12.57 17 11 18.34 11 20C11 21.66 12.57 23 14.5 23C16.43 23 18 21.66 18 20C18 18.34 16.43 17 14.5 17Z"></path><path id="svg_3" fill-rule="evenodd" style="fill:#000000" opacity="1" d="M15 18C13.9 18 13 18.9 13 20C13 21.1 13.9 22 15 22C16.1 22 17 21.1 17 20C17 18.9 16.1 18 15 18Z"></path></g></g><defs><rect id="path_0" x="0" y="0" width="40" height="40" /></defs></svg>